<?xml version="1.0" encoding="UTF-8"?>
<svg width="25px" height="25px" viewBox="0 0 25 25" version="1.1" xmlns="http://www.w3.org/2000/svg">
    <!-- Generator: Sketch 52.6 (67491) - http://www.bohemiancoding.com/sketch -->
    <title>Group</title>
    <desc>Created with Sketch.</desc>
    <g id="New-Designs" stroke="none" stroke-width="1" fill="none" fill-rule="evenodd">
        <g id="Asset-3" transform="translate(-350.000000, -403.000000)" fill="#FFFFFF" fill-rule="nonzero">
            <g id="Group" transform="translate(350.000000, 403.000000)">
                <path d="M17.3809524,14.6428571 C17.202381,14.6428571 17.0833333,14.5833333 16.9642857,14.4642857 C16.7261905,14.2261905 16.7261905,13.8690476 16.9642857,13.6309524 L22.5595238,8.03571429 C24.1071429,6.48809524 24.1071429,3.98809524 22.5595238,2.44047619 C21.0119048,0.892857143 18.5119048,0.892857143 16.9642857,2.44047619 L11.3690476,8.03571429 C11.1309524,8.27380952 10.7738095,8.27380952 10.5357143,8.03571429 C10.297619,7.79761905 10.297619,7.44047619 10.5357143,7.20238095 L16.1309524,1.60714286 C18.1547619,-0.416666667 21.4285714,-0.416666667 23.3928571,1.60714286 C25.4166667,3.63095238 25.4166667,6.9047619 23.3928571,8.86904762 L17.8571429,14.4642857 C17.7380952,14.5833333 17.5595238,14.6428571 17.3809524,14.6428571 Z" id="Shape"></path>
                <path d="M5.17857143,24.9404762 C3.80952381,24.9404762 2.5,24.4047619 1.54761905,23.452381 C0.595238095,22.5 0.0595238095,21.1904762 0.0595238095,19.8214286 C0.0595238095,18.452381 0.595238095,17.1428571 1.54761905,16.1904762 L7.14285714,10.5952381 C7.38095238,10.3571429 7.73809524,10.3571429 7.97619048,10.5952381 C8.21428571,10.8333333 8.21428571,11.1904762 7.97619048,11.4285714 L2.38095238,17.0238095 C1.60714286,17.797619 1.19047619,18.75 1.19047619,19.8214286 C1.19047619,20.8928571 1.60714286,21.9047619 2.38095238,22.6190476 C3.1547619,23.3928571 4.10714286,23.8095238 5.17857143,23.8095238 C5.17857143,23.8095238 5.17857143,23.8095238 5.17857143,23.8095238 C6.25,23.8095238 7.26190476,23.3928571 7.97619048,22.6190476 L13.5714286,17.0238095 C13.8095238,16.7857143 14.1666667,16.7857143 14.4047619,17.0238095 C14.6428571,17.2619048 14.6428571,17.6190476 14.4047619,17.8571429 L8.80952381,23.452381 C7.85714286,24.4047619 6.60714286,24.9404762 5.17857143,24.9404762 Z" id="Shape"></path>
                <path d="M6.13095238,19.3452381 C5.95238095,19.3452381 5.83333333,19.2857143 5.71428571,19.1666667 C5.47619048,18.9285714 5.47619048,18.5714286 5.71428571,18.3333333 L17.9166667,6.13095238 C18.1547619,5.89285714 18.5119048,5.89285714 18.75,6.13095238 C18.9880952,6.36904762 18.9880952,6.72619048 18.75,6.96428571 L6.54761905,19.1666667 C6.42857143,19.2857143 6.30952381,19.3452381 6.13095238,19.3452381 Z" id="Shape"></path>
            </g>
        </g>
    </g>
</svg>
